<mxfile host="app.diagrams.net" modified="2023-02-28T09:10:26.432Z" agent="5.0 (Windows NT 10.0; Win64; x64) AppleWebKit/537.36 (KHTML, like Gecko) Chrome/100.0.4896.127 Safari/537.36" etag="HwLGtpxl-EwhBofzGb8t" version="20.8.23" type="github">
  <diagram name="第 1 页" id="_LA1t185rXNYXWlvwjEc">
    <mxGraphModel dx="2074" dy="1068" grid="1" gridSize="10" guides="1" tooltips="1" connect="1" arrows="1" fold="1" page="1" pageScale="1" pageWidth="827" pageHeight="1169" math="0" shadow="0">
      <root>
        <mxCell id="0" />
        <mxCell id="1" parent="0" />
        <mxCell id="sumRupZ4shdAeWaPWhcd-1" value="&lt;font style=&quot;font-size: 14px;&quot;&gt;网络地址管理&lt;/font&gt;" style="rounded=1;whiteSpace=wrap;html=1;" vertex="1" parent="1">
          <mxGeometry x="140" y="190" width="120" height="50" as="geometry" />
        </mxCell>
        <mxCell id="sumRupZ4shdAeWaPWhcd-2" value="&lt;font style=&quot;font-size: 14px;&quot;&gt;动态网络映射&lt;/font&gt;" style="rounded=1;whiteSpace=wrap;html=1;" vertex="1" parent="1">
          <mxGeometry x="330" y="190" width="120" height="50" as="geometry" />
        </mxCell>
        <mxCell id="sumRupZ4shdAeWaPWhcd-3" value="&lt;font style=&quot;font-size: 14px;&quot;&gt;DHCP服务&lt;/font&gt;" style="rounded=1;whiteSpace=wrap;html=1;" vertex="1" parent="1">
          <mxGeometry x="140" y="290" width="120" height="50" as="geometry" />
        </mxCell>
        <mxCell id="sumRupZ4shdAeWaPWhcd-4" value="&lt;font style=&quot;font-size: 14px;&quot;&gt;DNS服务&lt;/font&gt;" style="rounded=1;whiteSpace=wrap;html=1;" vertex="1" parent="1">
          <mxGeometry x="330" y="290" width="120" height="50" as="geometry" />
        </mxCell>
        <mxCell id="sumRupZ4shdAeWaPWhcd-5" value="&lt;font style=&quot;font-size: 14px;&quot;&gt;内网主机&lt;/font&gt;" style="rounded=1;whiteSpace=wrap;html=1;" vertex="1" parent="1">
          <mxGeometry x="140" y="400" width="120" height="50" as="geometry" />
        </mxCell>
        <mxCell id="sumRupZ4shdAeWaPWhcd-6" value="&lt;font style=&quot;font-size: 14px;&quot;&gt;网关&lt;/font&gt;" style="rounded=1;whiteSpace=wrap;html=1;" vertex="1" parent="1">
          <mxGeometry x="330" y="400" width="120" height="50" as="geometry" />
        </mxCell>
        <mxCell id="sumRupZ4shdAeWaPWhcd-7" value="&lt;font style=&quot;font-size: 14px;&quot;&gt;外网&lt;/font&gt;" style="rounded=1;whiteSpace=wrap;html=1;" vertex="1" parent="1">
          <mxGeometry x="520" y="400" width="120" height="50" as="geometry" />
        </mxCell>
        <mxCell id="sumRupZ4shdAeWaPWhcd-8" value="&lt;font style=&quot;font-size: 14px;&quot;&gt;网络状态感知&lt;/font&gt;" style="rounded=1;whiteSpace=wrap;html=1;" vertex="1" parent="1">
          <mxGeometry x="330" y="550" width="120" height="50" as="geometry" />
        </mxCell>
      </root>
    </mxGraphModel>
  </diagram>
</mxfile>
